# xmcd
#
# Track frame offsets: 
#        150
#        1913
#        19725
#        35438
#        53888
#        67313
#        84038
#        94500
#        112725
#        129000
#        143400
#        165375
#        181763
#        200063
#        212213
#        224850
#        240825
#        256650
#
# Disc length: 3708 seconds
#
# Revision: 0
# Processed by: cddbd v1.5.2PL0 Copyright (c) Steve Scherf et al.
# Submitted via: ExactAudioCopy v0.99pb4
#
DISCID=e20e7a12
DTITLE=MOJO and The Bayou Gypsies - Better Get Ready... MOJO'S IN TOWN
DYEAR=1900
DGENRE=Blues
TTITLE0=Lagniappe ala Mojo
TTITLE1=Gonna RIP IT UP
TTITLE2=MOJO's In Town
TTITLE3=Jump On It
TTITLE4=Gonna Take Ya To The Country
TTITLE5=MOJO Strut
TTITLE6=Jump Up and SHOUT
TTITLE7=Gonna Do Ya
TTITLE8=We Got It Goin' On
TTITLE9=Moi Est MOJO
TTITLE10=Moonlight In Your Eyes
TTITLE11=Laissez L'Zydeco Rouler
TTITLE12=GRIS GRIS
TTITLE13=Hey Hey Tout Quel Qu'un
TTITLE14=We Gonna Party All Night Long
TTITLE15=Ma Jolie Fille
TTITLE16=Hey, Poncho
TTITLE17=I'm Comin' Home
EXTD=
EXTT0=
EXTT1=
EXTT2=
EXTT3=
EXTT4=
EXTT5=
EXTT6=
EXTT7=
EXTT8=
EXTT9=
EXTT10=
EXTT11=
EXTT12=
EXTT13=
EXTT14=
EXTT15=
EXTT16=
EXTT17=
PLAYORDER=
